# xmcd
#
# Track frame offsets:
#	150
#	10945
#	25025
#	34710
#	47375
#	58713
#	71978
#	81795
#	95218
#	111453
#	123738
#	140735
#	151860
#	161590
#
# Disc length: 2326 seconds
#
# Revision: 3
# Processed by: cddbd v1.5.2PL0 Copyright (c) Steve Scherf et al.
# Submitted via: VUPlayer 2.49
#
DISCID=c009140e
DTITLE=Various Artist - Country's Greatest Hits Vol. 3
DYEAR=1989
DGENRE=Country
TTITLE0=Kris Kristofferson - Help Me Mke it Through the Night
TTITLE1=David Allen Coe - Ride Me Down Easy
TTITLE2=Leroy van Dyke - Honeycomb
TTITLE3=Johnny Cash - Folsom Prosin Blues
TTITLE4=Patsy Cline - I've Loved and Lost Again
TTITLE5=Alabama - Patches
TTITLE6=Hank Locklin - Please Help Me I'm Falling
TTITLE7=Patti Page - Tennessee Waltz
TTITLE8=The Burrito Brothers - Take A Message To Mary
TTITLE9=Freddy Fender - Wasted Days and Wasted Nights
TTITLE10=Lynn Anderson - Blue Bayou
TTITLE11=Don Gibson - Oh Lonesome Me
TTITLE12=Ned Miller - From A Jack To A King
TTITLE13=Faron Young - It's Four in the Morning
EXTD=
EXTT0=
EXTT1=
EXTT2=
EXTT3=
EXTT4=
EXTT5=
EXTT6=
EXTT7=
EXTT8=
EXTT9=
EXTT10=
EXTT11=
EXTT12=
EXTT13=
PLAYORDER=
